<?xml version="1.0" encoding="utf-8"?>
<!-- Generator: Adobe Illustrator 26.0.1, SVG Export Plug-In . SVG Version: 6.00 Build 0)  -->
<svg version="1.1" id="Camada_1" xmlns="http://www.w3.org/2000/svg" xmlns:xlink="http://www.w3.org/1999/xlink" x="0px" y="0px"
	 viewBox="0 0 100 100" style="enable-background:new 0 0 100 100;" xml:space="preserve">
<path style="fill: white" d="M90,10V3.4C90,1.5,88.5,0,86.6,0H73.4C71.5,0,70,1.5,70,3.4V10H30V3.4C30,1.5,28.5,0,26.6,0H13.4C11.5,0,10,1.5,10,3.4V10
	H3.4C1.5,10,0,11.5,0,13.4v83.2c0,1.9,1.5,3.4,3.4,3.4h93.2c1.9,0,3.4-1.5,3.4-3.4V13.4c0-1.9-1.5-3.4-3.4-3.4H90z M90,90H10V40h80
	V90z"/>
</svg>
