<svg width="100" height="100" viewBox="0 0 100 100" fill="none" xmlns="http://www.w3.org/2000/svg">
<g clip-path="url(#clip0_87_67)">
<circle cx="50" cy="50" r="50" fill="#141414"/>
<path d="M61.328 70.8L45.904 50.64L26.32 26H43.152L58.128 45.648L78.224 70.8H61.328ZM26 70.8L44.816 46.416L56.72 51.472L42.32 70.8H26ZM59.344 50L47.504 45.136L61.2 26H77.52L59.344 50Z" fill="#FF00FF"/>
<path d="M57.328 74.8L41.904 54.64L22.32 30H39.152L54.128 49.648L74.224 74.8H57.328ZM22 74.8L40.816 50.416L52.72 55.472L38.32 74.8H22ZM55.344 54L43.504 49.136L57.2 30H73.52L55.344 54Z" fill="#00FF00"/>
<path d="M59.328 72.8L43.904 52.64L24.32 28H41.152L56.128 47.648L76.224 72.8H59.328ZM24 72.8L42.816 48.416L54.72 53.472L40.32 72.8H24ZM57.344 52L45.504 47.136L59.2 28H75.52L57.344 52Z" fill="white"/>
</g>
<defs>
<clipPath id="clip0_87_67">
<rect width="100" height="100" fill="white"/>
</clipPath>
</defs>
</svg>
