<svg width="100" height="100" viewBox="0 0 100 100" fill="none" xmlns="http://www.w3.org/2000/svg">
<g clip-path="url(#clip0_87_44)">
<circle cx="50" cy="50" r="50" fill="#141414"/>
<path d="M57.368 69.72C53.6133 69.72 50.1147 69.144 46.872 67.992C43.672 66.84 40.8773 65.24 38.488 63.192C36.0987 61.144 34.2427 58.6907 32.92 55.832C31.64 52.9733 31 49.816 31 46.36C31 42.904 31.6613 39.7467 32.984 36.888C34.3067 34.0293 36.1413 31.576 38.488 29.528C40.8773 27.48 43.6933 25.88 46.936 24.728C50.1787 23.576 53.6987 23 57.496 23C59.8853 23 62.2107 23.2773 64.472 23.832C66.7333 24.344 68.8667 25.0907 70.872 26.072C72.8773 27.0533 74.6693 28.248 76.248 29.656L68.184 39.768C67.4587 39 66.584 38.296 65.56 37.656C64.536 37.016 63.32 36.4827 61.912 36.056C60.5467 35.6293 58.9467 35.416 57.112 35.416C55.6187 35.416 54.1467 35.6507 52.696 36.12C51.2453 36.5893 49.9653 37.2933 48.856 38.232C47.7467 39.1707 46.8507 40.344 46.168 41.752C45.528 43.1173 45.208 44.7173 45.208 46.552C45.208 48.2587 45.5493 49.7947 46.232 51.16C46.9147 52.4827 47.8533 53.6133 49.048 54.552C50.2853 55.448 51.6933 56.152 53.272 56.664C54.8933 57.176 56.6427 57.432 58.52 57.432C60.2693 57.432 61.848 57.176 63.256 56.664C64.664 56.152 65.9013 55.5547 66.968 54.872C68.0773 54.1467 69.0373 53.4 69.848 52.632L76.376 63.064C75.1813 64.1733 73.5813 65.24 71.576 66.264C69.6133 67.288 67.3947 68.12 64.92 68.76C62.488 69.4 59.9707 69.72 57.368 69.72Z" fill="#FF00FF"/>
<path d="M50.368 76.72C46.6133 76.72 43.1147 76.144 39.872 74.992C36.672 73.84 33.8773 72.24 31.488 70.192C29.0987 68.144 27.2427 65.6907 25.92 62.832C24.64 59.9733 24 56.816 24 53.36C24 49.904 24.6613 46.7467 25.984 43.888C27.3067 41.0293 29.1413 38.576 31.488 36.528C33.8773 34.48 36.6933 32.88 39.936 31.728C43.1787 30.576 46.6987 30 50.496 30C52.8853 30 55.2107 30.2773 57.472 30.832C59.7333 31.344 61.8667 32.0907 63.872 33.072C65.8773 34.0533 67.6693 35.248 69.248 36.656L61.184 46.768C60.4587 46 59.584 45.296 58.56 44.656C57.536 44.016 56.32 43.4827 54.912 43.056C53.5467 42.6293 51.9467 42.416 50.112 42.416C48.6187 42.416 47.1467 42.6507 45.696 43.12C44.2453 43.5893 42.9653 44.2933 41.856 45.232C40.7467 46.1707 39.8507 47.344 39.168 48.752C38.528 50.1173 38.208 51.7173 38.208 53.552C38.208 55.2587 38.5493 56.7947 39.232 58.16C39.9147 59.4827 40.8533 60.6133 42.048 61.552C43.2853 62.448 44.6933 63.152 46.272 63.664C47.8933 64.176 49.6427 64.432 51.52 64.432C53.2693 64.432 54.848 64.176 56.256 63.664C57.664 63.152 58.9013 62.5547 59.968 61.872C61.0773 61.1467 62.0373 60.4 62.848 59.632L69.376 70.064C68.1813 71.1733 66.5813 72.24 64.576 73.264C62.6133 74.288 60.3947 75.12 57.92 75.76C55.488 76.4 52.9707 76.72 50.368 76.72Z" fill="#00FF00"/>
<path d="M53.368 73.72C49.6133 73.72 46.1147 73.144 42.872 71.992C39.672 70.84 36.8773 69.24 34.488 67.192C32.0987 65.144 30.2427 62.6907 28.92 59.832C27.64 56.9733 27 53.816 27 50.36C27 46.904 27.6613 43.7467 28.984 40.888C30.3067 38.0293 32.1413 35.576 34.488 33.528C36.8773 31.48 39.6933 29.88 42.936 28.728C46.1787 27.576 49.6987 27 53.496 27C55.8853 27 58.2107 27.2773 60.472 27.832C62.7333 28.344 64.8667 29.0907 66.872 30.072C68.8773 31.0533 70.6693 32.248 72.248 33.656L64.184 43.768C63.4587 43 62.584 42.296 61.56 41.656C60.536 41.016 59.32 40.4827 57.912 40.056C56.5467 39.6293 54.9467 39.416 53.112 39.416C51.6187 39.416 50.1467 39.6507 48.696 40.12C47.2453 40.5893 45.9653 41.2933 44.856 42.232C43.7467 43.1707 42.8507 44.344 42.168 45.752C41.528 47.1173 41.208 48.7173 41.208 50.552C41.208 52.2587 41.5493 53.7947 42.232 55.16C42.9147 56.4827 43.8533 57.6133 45.048 58.552C46.2853 59.448 47.6933 60.152 49.272 60.664C50.8933 61.176 52.6427 61.432 54.52 61.432C56.2693 61.432 57.848 61.176 59.256 60.664C60.664 60.152 61.9013 59.5547 62.968 58.872C64.0773 58.1467 65.0373 57.4 65.848 56.632L72.376 67.064C71.1813 68.1733 69.5813 69.24 67.576 70.264C65.6133 71.288 63.3947 72.12 60.92 72.76C58.488 73.4 55.9707 73.72 53.368 73.72Z" fill="white"/>
</g>
<defs>
<clipPath id="clip0_87_44">
<rect width="100" height="100" fill="white"/>
</clipPath>
</defs>
</svg>
