<svg width="100" height="100" viewBox="0 0 100 100" fill="none" xmlns="http://www.w3.org/2000/svg">
<g clip-path="url(#clip0_87_71)">
<circle cx="50" cy="50" r="50" fill="#141414"/>
<path d="M29 70.8V26H41.608L65.8 54.48L63.112 53.584C62.856 51.792 62.6427 50.2133 62.472 48.848C62.344 47.4827 62.216 46.2453 62.088 45.136C62.0027 43.984 61.9387 42.8747 61.896 41.808C61.8533 40.7413 61.832 39.6107 61.832 38.416C61.832 37.2213 61.832 35.856 61.832 34.32V26H75.144V70.8H62.408L36.104 39.44L41.032 40.976C41.16 42.128 41.288 43.1947 41.416 44.176C41.5867 45.1147 41.7147 46.0533 41.8 46.992C41.928 47.888 42.0133 48.8693 42.056 49.936C42.1413 51.0027 42.2053 52.24 42.248 53.648C42.2907 55.056 42.312 56.6987 42.312 58.576V70.8H29Z" fill="#FF00FF"/>
<path d="M25 74.8V30H37.608L61.8 58.48L59.112 57.584C58.856 55.792 58.6427 54.2133 58.472 52.848C58.344 51.4827 58.216 50.2453 58.088 49.136C58.0027 47.984 57.9387 46.8747 57.896 45.808C57.8533 44.7413 57.832 43.6107 57.832 42.416C57.832 41.2213 57.832 39.856 57.832 38.32V30H71.144V74.8H58.408L32.104 43.44L37.032 44.976C37.16 46.128 37.288 47.1947 37.416 48.176C37.5867 49.1147 37.7147 50.0533 37.8 50.992C37.928 51.888 38.0133 52.8693 38.056 53.936C38.1413 55.0027 38.2053 56.24 38.248 57.648C38.2907 59.056 38.312 60.6987 38.312 62.576V74.8H25Z" fill="#00FF00"/>
<path d="M27 72.8V28H39.608L63.8 56.48L61.112 55.584C60.856 53.792 60.6427 52.2133 60.472 50.848C60.344 49.4827 60.216 48.2453 60.088 47.136C60.0027 45.984 59.9387 44.8747 59.896 43.808C59.8533 42.7413 59.832 41.6107 59.832 40.416C59.832 39.2213 59.832 37.856 59.832 36.32V28H73.144V72.8H60.408L34.104 41.44L39.032 42.976C39.16 44.128 39.288 45.1947 39.416 46.176C39.5867 47.1147 39.7147 48.0533 39.8 48.992C39.928 49.888 40.0133 50.8693 40.056 51.936C40.1413 53.0027 40.2053 54.24 40.248 55.648C40.2907 57.056 40.312 58.6987 40.312 60.576V72.8H27Z" fill="white"/>
</g>
<defs>
<clipPath id="clip0_87_71">
<rect width="100" height="100" fill="white"/>
</clipPath>
</defs>
</svg>
