<svg width="100" height="100" viewBox="0 0 100 100" fill="none" xmlns="http://www.w3.org/2000/svg">
<g clip-path="url(#clip0_87_73)">
<circle cx="50" cy="50" r="50" fill="#141414"/>
<path d="M51.24 72.72C47.3573 72.72 43.816 72.144 40.616 70.992C37.4587 69.84 34.6853 68.2187 32.296 66.128C29.9493 63.9947 28.136 61.52 26.856 58.704C25.6187 55.8453 25 52.7307 25 49.36C25 45.9893 25.6187 42.896 26.856 40.08C28.136 37.2213 29.9493 34.7467 32.296 32.656C34.6853 30.5227 37.4587 28.88 40.616 27.728C43.816 26.576 47.336 26 51.176 26C55.016 26 58.5147 26.576 61.672 27.728C64.872 28.88 67.6453 30.5227 69.992 32.656C72.3387 34.7467 74.152 37.2213 75.432 40.08C76.712 42.896 77.352 45.968 77.352 49.296C77.352 52.6667 76.712 55.7813 75.432 58.64C74.152 61.4987 72.3387 63.9947 69.992 66.128C67.6453 68.2187 64.872 69.84 61.672 70.992C58.5147 72.144 55.0373 72.72 51.24 72.72ZM51.176 59.92C52.9253 59.92 54.5253 59.664 55.976 59.152C57.4693 58.64 58.7707 57.9147 59.88 56.976C60.9893 55.9947 61.8213 54.864 62.376 53.584C62.9733 52.304 63.272 50.896 63.272 49.36C63.272 47.824 62.9733 46.416 62.376 45.136C61.8213 43.856 60.9893 42.7467 59.88 41.808C58.7707 40.8267 57.4693 40.08 55.976 39.568C54.5253 39.056 52.9253 38.8 51.176 38.8C49.4267 38.8 47.8053 39.056 46.312 39.568C44.8613 40.08 43.5813 40.8267 42.472 41.808C41.3627 42.7893 40.5093 43.92 39.912 45.2C39.3573 46.48 39.08 47.8667 39.08 49.36C39.08 50.896 39.3573 52.304 39.912 53.584C40.5093 54.8213 41.3627 55.9307 42.472 56.912C43.5813 57.8933 44.8613 58.64 46.312 59.152C47.8053 59.664 49.4267 59.92 51.176 59.92Z" fill="#FF00FF"/>
<path d="M49.24 74.72C45.3573 74.72 41.816 74.144 38.616 72.992C35.4587 71.84 32.6853 70.2187 30.296 68.128C27.9493 65.9947 26.136 63.52 24.856 60.704C23.6187 57.8453 23 54.7307 23 51.36C23 47.9893 23.6187 44.896 24.856 42.08C26.136 39.2213 27.9493 36.7467 30.296 34.656C32.6853 32.5227 35.4587 30.88 38.616 29.728C41.816 28.576 45.336 28 49.176 28C53.016 28 56.5147 28.576 59.672 29.728C62.872 30.88 65.6453 32.5227 67.992 34.656C70.3387 36.7467 72.152 39.2213 73.432 42.08C74.712 44.896 75.352 47.968 75.352 51.296C75.352 54.6667 74.712 57.7813 73.432 60.64C72.152 63.4987 70.3387 65.9947 67.992 68.128C65.6453 70.2187 62.872 71.84 59.672 72.992C56.5147 74.144 53.0373 74.72 49.24 74.72ZM49.176 61.92C50.9253 61.92 52.5253 61.664 53.976 61.152C55.4693 60.64 56.7707 59.9147 57.88 58.976C58.9893 57.9947 59.8213 56.864 60.376 55.584C60.9733 54.304 61.272 52.896 61.272 51.36C61.272 49.824 60.9733 48.416 60.376 47.136C59.8213 45.856 58.9893 44.7467 57.88 43.808C56.7707 42.8267 55.4693 42.08 53.976 41.568C52.5253 41.056 50.9253 40.8 49.176 40.8C47.4267 40.8 45.8053 41.056 44.312 41.568C42.8613 42.08 41.5813 42.8267 40.472 43.808C39.3627 44.7893 38.5093 45.92 37.912 47.2C37.3573 48.48 37.08 49.8667 37.08 51.36C37.08 52.896 37.3573 54.304 37.912 55.584C38.5093 56.8213 39.3627 57.9307 40.472 58.912C41.5813 59.8933 42.8613 60.64 44.312 61.152C45.8053 61.664 47.4267 61.92 49.176 61.92Z" fill="#00FF00"/>
<path d="M50.24 73.72C46.3573 73.72 42.816 73.144 39.616 71.992C36.4587 70.84 33.6853 69.2187 31.296 67.128C28.9493 64.9947 27.136 62.52 25.856 59.704C24.6187 56.8453 24 53.7307 24 50.36C24 46.9893 24.6187 43.896 25.856 41.08C27.136 38.2213 28.9493 35.7467 31.296 33.656C33.6853 31.5227 36.4587 29.88 39.616 28.728C42.816 27.576 46.336 27 50.176 27C54.016 27 57.5147 27.576 60.672 28.728C63.872 29.88 66.6453 31.5227 68.992 33.656C71.3387 35.7467 73.152 38.2213 74.432 41.08C75.712 43.896 76.352 46.968 76.352 50.296C76.352 53.6667 75.712 56.7813 74.432 59.64C73.152 62.4987 71.3387 64.9947 68.992 67.128C66.6453 69.2187 63.872 70.84 60.672 71.992C57.5147 73.144 54.0373 73.72 50.24 73.72ZM50.176 60.92C51.9253 60.92 53.5253 60.664 54.976 60.152C56.4693 59.64 57.7707 58.9147 58.88 57.976C59.9893 56.9947 60.8213 55.864 61.376 54.584C61.9733 53.304 62.272 51.896 62.272 50.36C62.272 48.824 61.9733 47.416 61.376 46.136C60.8213 44.856 59.9893 43.7467 58.88 42.808C57.7707 41.8267 56.4693 41.08 54.976 40.568C53.5253 40.056 51.9253 39.8 50.176 39.8C48.4267 39.8 46.8053 40.056 45.312 40.568C43.8613 41.08 42.5813 41.8267 41.472 42.808C40.3627 43.7893 39.5093 44.92 38.912 46.2C38.3573 47.48 38.08 48.8667 38.08 50.36C38.08 51.896 38.3573 53.304 38.912 54.584C39.5093 55.8213 40.3627 56.9307 41.472 57.912C42.5813 58.8933 43.8613 59.64 45.312 60.152C46.8053 60.664 48.4267 60.92 50.176 60.92Z" fill="white"/>
</g>
<defs>
<clipPath id="clip0_87_73">
<rect width="100" height="100" fill="white"/>
</clipPath>
</defs>
</svg>
