<svg width="100" height="100" viewBox="0 0 100 100" fill="none" xmlns="http://www.w3.org/2000/svg">
<g clip-path="url(#clip0_87_59)">
<circle cx="50" cy="50" r="50" fill="#141414"/>
<path d="M59.328 68.8L43.904 48.64L24.32 24H41.152L56.128 43.648L76.224 68.8H59.328ZM24 68.8L42.816 44.416L54.72 49.472L40.32 68.8H24ZM57.344 48L45.504 43.136L59.2 24H75.52L57.344 48Z" fill="#FF00FF"/>
<path d="M58.328 74.8L42.904 54.64L23.32 30H40.152L55.128 49.648L75.224 74.8H58.328ZM23 74.8L41.816 50.416L53.72 55.472L39.32 74.8H23ZM56.344 54L44.504 49.136L58.2 30H74.52L56.344 54Z" fill="#00FF00"/>
<path d="M59.328 72.8L43.904 52.64L24.32 28H41.152L56.128 47.648L76.224 72.8H59.328ZM24 72.8L42.816 48.416L54.72 53.472L40.32 72.8H24ZM57.344 52L45.504 47.136L59.2 28H75.52L57.344 52Z" fill="white"/>
</g>
<defs>
<clipPath id="clip0_87_59">
<rect width="100" height="100" fill="white"/>
</clipPath>
</defs>
</svg>
