<svg width="100" height="100" viewBox="0 0 100 100" fill="none" xmlns="http://www.w3.org/2000/svg">
<g clip-path="url(#clip0_87_61)">
<circle cx="50" cy="50" r="50" fill="#141414"/>
<path d="M51.76 70.184C47.4507 70.184 43.6533 69.352 40.368 67.688C37.1253 66.024 34.5867 63.7413 32.752 60.84C30.9173 57.9387 30 54.632 30 50.92V25H43.952V50.472C43.952 52.008 44.272 53.3733 44.912 54.568C45.5947 55.7627 46.512 56.7013 47.664 57.384C48.8587 58.0667 50.224 58.408 51.76 58.408C53.3813 58.408 54.7893 58.0667 55.984 57.384C57.1787 56.7013 58.1173 55.7627 58.8 54.568C59.5253 53.3733 59.888 52.008 59.888 50.472V25H73.52V50.92C73.52 54.632 72.6027 57.9387 70.768 60.84C68.9333 63.7413 66.3733 66.024 63.088 67.688C59.8453 69.352 56.0693 70.184 51.76 70.184Z" fill="#FF00FF"/>
<path d="M47.76 74.184C43.4507 74.184 39.6533 73.352 36.368 71.688C33.1253 70.024 30.5867 67.7413 28.752 64.84C26.9173 61.9387 26 58.632 26 54.92V29H39.952V54.472C39.952 56.008 40.272 57.3733 40.912 58.568C41.5947 59.7627 42.512 60.7013 43.664 61.384C44.8587 62.0667 46.224 62.408 47.76 62.408C49.3813 62.408 50.7893 62.0667 51.984 61.384C53.1787 60.7013 54.1173 59.7627 54.8 58.568C55.5253 57.3733 55.888 56.008 55.888 54.472V29H69.52V54.92C69.52 58.632 68.6027 61.9387 66.768 64.84C64.9333 67.7413 62.3733 70.024 59.088 71.688C55.8453 73.352 52.0693 74.184 47.76 74.184Z" fill="#00FF00"/>
<path d="M49.76 72.184C45.4507 72.184 41.6533 71.352 38.368 69.688C35.1253 68.024 32.5867 65.7413 30.752 62.84C28.9173 59.9387 28 56.632 28 52.92V27H41.952V52.472C41.952 54.008 42.272 55.3733 42.912 56.568C43.5947 57.7627 44.512 58.7013 45.664 59.384C46.8587 60.0667 48.224 60.408 49.76 60.408C51.3813 60.408 52.7893 60.0667 53.984 59.384C55.1787 58.7013 56.1173 57.7627 56.8 56.568C57.5253 55.3733 57.888 54.008 57.888 52.472V27H71.52V52.92C71.52 56.632 70.6027 59.9387 68.768 62.84C66.9333 65.7413 64.3733 68.024 61.088 69.688C57.8453 71.352 54.0693 72.184 49.76 72.184Z" fill="white"/>
</g>
<defs>
<clipPath id="clip0_87_61">
<rect width="100" height="100" fill="white"/>
</clipPath>
</defs>
</svg>
